HIERARCHY
ROOT Hips
{
	OFFSET -14.64140 90.27770 -84.91600
	CHANNELS 6 Xposition Yposition Zposition Zrotation Xrotation Yrotation
	JOINT Spine
	{
		OFFSET 0.00000 13.20850 -1.60436
		CHANNELS 3 Zrotation Xrotation Yrotation
		JOINT Spine1
		{
			OFFSET 0.00000 8.61716 0.00000
			CHANNELS 3 Zrotation Xrotation Yrotation
			JOINT Spine2
			{
				OFFSET 0.00000 8.61717 0.00000
				CHANNELS 3 Zrotation Xrotation Yrotation
				JOINT Spine3
				{
					OFFSET 0.00000 8.61717 0.00000
					CHANNELS 3 Zrotation Xrotation Yrotation
					JOINT Neck
					{
						OFFSET 0.00000 11.07920 1.10792
						CHANNELS 3 Zrotation Xrotation Yrotation
						JOINT Neck1
						{
							OFFSET 0.00000 7.08032 0.00000
							CHANNELS 3 Zrotation Xrotation Yrotation
							JOINT Head
							{
								OFFSET 0.00000 7.08031 0.00000
								CHANNELS 3 Zrotation Xrotation Yrotation
								End site
								{
									OFFSET 0.00000 0.00000 0.00000
								}
							}
						}
					}
					JOINT RightShoulder
					{
						OFFSET -0.01000 7.91373 5.19711
						CHANNELS 3 Zrotation Xrotation Yrotation
						JOINT RightArm
						{
							OFFSET -18.41580 0.00000 0.00000
							CHANNELS 3 Zrotation Xrotation Yrotation
							JOINT RightForeArm
							{
								OFFSET -29.11090 0.00000 0.00000
								CHANNELS 3 Zrotation Xrotation Yrotation
								JOINT RightHand
								{
									OFFSET -24.65040 0.00000 0.00000
									CHANNELS 3 Zrotation Xrotation Yrotation
									JOINT RightHandThumb1
									{
										OFFSET -5.35114 -0.85590 3.97906
										CHANNELS 3 Zrotation Xrotation Yrotation
										JOINT RightHandThumb2
										{
											OFFSET -4.52789 0.00000 0.00000
											CHANNELS 3 Zrotation Xrotation Yrotation
											JOINT RightHandThumb3
											{
												OFFSET -2.46976 0.00000 0.00000
												CHANNELS 3 Zrotation Xrotation Yrotation
												End site
												{
													OFFSET 0.00000 0.00000 0.00000
												}
											}
										}
									}
									JOINT RightHandIndex1
									{
										OFFSET -14.26970 0.00000 2.88139
										CHANNELS 3 Zrotation Xrotation Yrotation
										JOINT RightHandIndex2
										{
											OFFSET -5.48836 0.00000 0.00000
											CHANNELS 3 Zrotation Xrotation Yrotation
											JOINT RightHandIndex3
											{
												OFFSET -3.01859 0.00000 0.00000
												CHANNELS 3 Zrotation Xrotation Yrotation
												End site
												{
													OFFSET 0.00000 0.00000 0.00000
												}
											}
										}
									}
									JOINT RightHandMiddle1
									{
										OFFSET -14.26970 0.00000 -0.09147
										CHANNELS 3 Zrotation Xrotation Yrotation
										JOINT RightHandMiddle2
										{
											OFFSET -6.17441 0.00000 0.00000
											CHANNELS 3 Zrotation Xrotation Yrotation
											JOINT RightHandMiddle3
											{
												OFFSET -3.56743 0.00000 0.00000
												CHANNELS 3 Zrotation Xrotation Yrotation
												End site
												{
													OFFSET 0.00000 0.00000 0.00000
												}
											}
										}
									}
									JOINT RightHandRing1
									{
										OFFSET -12.69180 0.00000 -3.06433
										CHANNELS 3 Zrotation Xrotation Yrotation
										JOINT RightHandRing2
										{
											OFFSET -5.62556 0.00000 0.00000
											CHANNELS 3 Zrotation Xrotation Yrotation
											JOINT RightHandRing3
											{
												OFFSET -3.56744 0.00000 0.00000
												CHANNELS 3 Zrotation Xrotation Yrotation
												End site
												{
													OFFSET 0.00000 0.00000 0.00000
												}
											}
										}
									}
									JOINT RightHandPinky1
									{
										OFFSET -11.11390 0.00000 -6.03719
										CHANNELS 3 Zrotation Xrotation Yrotation
										JOINT RightHandPinky2
										{
											OFFSET -4.52789 0.00000 0.00000
											CHANNELS 3 Zrotation Xrotation Yrotation
											JOINT RightHandPinky3
											{
												OFFSET -2.46976 0.00000 0.00000
												CHANNELS 3 Zrotation Xrotation Yrotation
												End site
												{
													OFFSET 0.00000 0.00000 0.00000
												}
											}
										}
									}
								}
							}
						}
					}
					JOINT LeftShoulder
					{
						OFFSET 0.01000 7.91373 5.19711
						CHANNELS 3 Zrotation Xrotation Yrotation
						JOINT LeftArm
						{
							OFFSET 18.41580 0.00000 0.00000
							CHANNELS 3 Zrotation Xrotation Yrotation
							JOINT LeftForeArm
							{
								OFFSET 29.11090 0.00000 0.00000
								CHANNELS 3 Zrotation Xrotation Yrotation
								JOINT LeftHand
								{
									OFFSET 24.65040 0.00000 0.00000
									CHANNELS 3 Zrotation Xrotation Yrotation
									JOINT LeftHandThumb1
									{
										OFFSET 5.35114 -0.85590 3.97906
										CHANNELS 3 Zrotation Xrotation Yrotation
										JOINT LeftHandThumb2
										{
											OFFSET 4.52789 0.00000 0.00000
											CHANNELS 3 Zrotation Xrotation Yrotation
											JOINT LeftHandThumb3
											{
												OFFSET 2.46977 0.00000 0.00000
												CHANNELS 3 Zrotation Xrotation Yrotation
												End site
												{
													OFFSET 0.00000 0.00000 0.00000
												}
											}
										}
									}
									JOINT LeftHandIndex1
									{
										OFFSET 14.26970 0.00000 2.88139
										CHANNELS 3 Zrotation Xrotation Yrotation
										JOINT LeftHandIndex2
										{
											OFFSET 5.48836 0.00000 0.00000
											CHANNELS 3 Zrotation Xrotation Yrotation
											JOINT LeftHandIndex3
											{
												OFFSET 3.01859 0.00000 0.00000
												CHANNELS 3 Zrotation Xrotation Yrotation
												End site
												{
													OFFSET 0.00000 0.00000 0.00000
												}
											}
										}
									}
									JOINT LeftHandMiddle1
									{
										OFFSET 14.26970 0.00000 -0.09147
										CHANNELS 3 Zrotation Xrotation Yrotation
										JOINT LeftHandMiddle2
										{
											OFFSET 6.17440 0.00000 0.00000
											CHANNELS 3 Zrotation Xrotation Yrotation
											JOINT LeftHandMiddle3
											{
												OFFSET 3.56744 0.00000 0.00000
												CHANNELS 3 Zrotation Xrotation Yrotation
												End site
												{
													OFFSET 0.00000 0.00000 0.00000
												}
											}
										}
									}
									JOINT LeftHandRing1
									{
										OFFSET 12.69180 0.00000 -3.06433
										CHANNELS 3 Zrotation Xrotation Yrotation
										JOINT LeftHandRing2
										{
											OFFSET 5.62556 0.00000 0.00000
											CHANNELS 3 Zrotation Xrotation Yrotation
											JOINT LeftHandRing3
											{
												OFFSET 3.56744 0.00000 0.00000
												CHANNELS 3 Zrotation Xrotation Yrotation
												End site
												{
													OFFSET 0.00000 0.00000 0.00000
												}
											}
										}
									}
									JOINT LeftHandPinky1
									{
										OFFSET 11.11390 0.00000 -6.03719
										CHANNELS 3 Zrotation Xrotation Yrotation
										JOINT LeftHandPinky2
										{
											OFFSET 4.52789 0.00000 0.00000
											CHANNELS 3 Zrotation Xrotation Yrotation
											JOINT LeftHandPinky3
											{
												OFFSET 2.46976 0.00000 0.00000
												CHANNELS 3 Zrotation Xrotation Yrotation
												End site
												{
													OFFSET 0.00000 0.00000 0.00000
												}
											}
										}
									}
								}
							}
						}
					}
					JOINT pCube4
					{
						OFFSET 0.00000 10.91090 1.10792
						CHANNELS 3 Zrotation Xrotation Yrotation
						End site
						{
							OFFSET 0.00000 0.00000 0.00000
						}
					}
				}
			}
		}
	}
	JOINT RightUpLeg
	{
		OFFSET -9.98441 0.00000 0.00000
		CHANNELS 3 Zrotation Xrotation Yrotation
		JOINT RightLeg
		{
			OFFSET 0.00000 -42.11790 0.00000
			CHANNELS 3 Zrotation Xrotation Yrotation
			JOINT RightFoot
			{
				OFFSET 0.00000 -45.00020 -0.00001
				CHANNELS 3 Zrotation Xrotation Yrotation
				JOINT RightForeFoot
				{
					OFFSET 0.00000 -3.74820 0.00000
					CHANNELS 3 Zrotation Xrotation Yrotation
					JOINT RightToeBase
					{
						OFFSET 0.00000 0.06325 14.43120
						CHANNELS 3 Zrotation Xrotation Yrotation
						End site
						{
							OFFSET 0.00000 0.00000 0.00000
						}
					}
				}
			}
		}
	}
	JOINT LeftUpLeg
	{
		OFFSET 9.98441 0.00000 0.00000
		CHANNELS 3 Zrotation Xrotation Yrotation
		JOINT LeftLeg
		{
			OFFSET 0.00000 -42.11800 0.00000
			CHANNELS 3 Zrotation Xrotation Yrotation
			JOINT LeftFoot
			{
				OFFSET 0.00000 -45.00070 0.00000
				CHANNELS 3 Zrotation Xrotation Yrotation
				JOINT LeftForeFoot
				{
					OFFSET 0.00000 -3.74824 0.00000
					CHANNELS 3 Zrotation Xrotation Yrotation
					JOINT LeftToeBase
					{
						OFFSET 0.00000 0.06325 14.43110
						CHANNELS 3 Zrotation Xrotation Yrotation
						End site
						{
							OFFSET 0.00000 0.00000 0.00000
						}
					}
				}
			}
		}
	}
}
MOTION
Frames: 4
Frame Time: 0.050000
-0.033501658285965845 -0.005064221015182502 0.02323987275450173 0.011534562947891368 -0.006199154095672113 0.008628368744958825 1.2065583567240623 3.635403983244782 -1.4916624497454682 -0.6271936269895367 3.7667185963942593 0.34787260696541555 -0.7621082356141975 -1.1255356221449437 1.4438978008625691 -0.4840556137408295 -0.8160826919899161 -0.3397473774129546 0.4131733474028747 11.824077208389129 -2.1668955391690994 0.15742046589391012 -1.6450282964557068 -6.906175196028772 1.1312299680896862 -17.947444556551247 -0.5883625838233809 -6.713679706783902 2.5958390751704448 -16.118821381557282 75.55471542819309 -23.188791659884973 19.204653061012362 25.338725022430786 -1.9653223371087942 86.80382911377059 11.076199404311437 -0.26476257880866927 -1.4840757001044802 4.575170034032086 -0.10591862060748078 -1.5911537951857329 0.02992086680703533 0.010220467685531085 -56.275062959516596 -0.032625237621992896 -0.004018600659484588 -56.24991309083726 -38.72205150678195 -0.013897467948071871 0.035413665880299476 -0.0023244648490783723 0.016048971691418182 -0.002062221523743961 -0.011951767250962954 0.03860451182281109 -0.012855530685555944 -36.69774093562181 0.017321021589881424 0.03595659438683045 -0.0035882375877326783 0.041100300583045306 -0.015560400139785458 0.023640219150658066 -0.004255239404396737 0.0040535447247643215 -19.75695869940609 0.015401804623701474 -0.018355011296670186 -0.019075174592725133 -0.011532289526998958 -0.012325335216649861 -0.039335203063776004 -0.004018648511975462 0.01847841290833971 24.038055927915998 -0.04979821060351226 0.007511668867718907 28.893713655347376 0.0034413627214481073 -0.022729049305286443 28.8563844602125 0.003339446089373748 0.043642305216665594 5.421629236867993 1.60987361873051 14.575093215090094 -72.9167892464375 -1.5654259098032928 -10.08938810955321 11.46771186410847 -10.084364767040805 -73.13516356429955 -9.379378466250147 11.516677842665427 -10.970827611789122 -0.48606508392198516 0.08304597871058889 -8.097251919347586 0.03943443774217519 0.009588061136222832 44.58058368590486 -0.037156426679636874 0.044850668996371135 44.59310850044675 12.48759221504116 -0.032866363075510774 -0.02923263010813818 0.034975509872739355 0.025247021624171712 0.0020813681596872804 0.036571682443130235 -0.02969806232983919 0.019573969261501737 11.13904776818456 0.04886713011757139 -0.04400293020230091 0.04654621090580997 -0.00713300922293275 0.006476339011638 0.015065935367535957 0.014168017227726558 -0.019648751116069 4.806259908614434 -0.036955431382919124 0.034275686291770836 0.040102466040461075 -0.04235908429429647 0.032288401896895226 0.03492166604667458 0.005811589784117796 -0.023707738472415852 -5.566059906276297 0.024202692704268045 -0.04380473750290756 -6.750703555543165 0.020936633741796558 0.026897250061246266 -6.696408752636494 -0.010900992339485044 0.04459047235727366 -0.04866647283079695 -0.010315160668598809 -0.03461624414196159 8.018166080740027 3.4822588278614144 -19.207009071388626 0.027951705150231106 10.363124934926402 0.054507946275871036 -5.642831098824276 -15.643177775133418 3.235010746364778 -0.027140850867108088 -0.021557114199484837 0.043651249763563375 -0.017896708721635894 4.660086576158416 0.012832508630879797 12.475248619577972 -8.225843218035237 6.8929911014045295 0.0031436273746889946 46.38584466308094 -0.019210012949210247 -4.360509753715715 -14.794681561254336 -3.8211418457168684 -0.038419841807900076 -0.04705351603041354 -0.004953225004377548 -0.022868160319093528 -10.780319965276757 0.03056250569681935 
0.04301815906007794 0.04204657663482611 0.02068744096325159 0.010101158504971447 0.010338540464498142 0.022076383053642925 1.653722742467886 3.6173267967186375 -1.478958538939427 -0.6582248653029046 3.7775561818809056 0.3951339151385408 -0.8321855698929191 -1.1426128625512917 1.6861480362725942 -0.4466490987911782 -0.8510605384870581 -0.3319924722730904 0.5318068775145097 11.96681396754395 -2.2598874404322298 0.1363093726071847 -1.5626100319153164 -7.226885352148429 1.098075848738631 -17.92109762648151 -0.6202752634455365 -7.701396796444734 2.8139759835133398 -16.31772761528692 75.2232750951969 -22.995612281302414 21.82349381164064 23.036515399390368 -3.393401588879845 89.30207613634387 9.244778581355844 -0.2662620828169497 -1.0035340570097804 4.530549798419363 -0.14689365291595402 -1.6415940394792452 -0.02300178827082415 0.027693020371163 -56.22972714793624 -0.04420377918492253 0.017065203459360332 -56.20225250354021 -38.79828974659359 -0.007427488176187612 0.007801479051310356 -0.010384697943947753 0.002498869501874706 0.04877301472412875 -0.0055883186301238265 0.014809989566076395 -0.04859394476914803 -36.685543761323885 -0.020855945564591707 0.005885405237373861 -0.018266708739455795 0.01018292858391345 -0.00992741822963526 0.001497052982818232 0.01973685303855438 -0.0011642400700285383 -19.768926284577194 0.008777001272257527 0.041131303706579546 0.023995691895573837 0.04290549322867556 -0.03476855343095536 0.01432015106168599 -0.022629642694691574 0.03400964879024461 24.082394041033734 0.03012783270953637 -0.026153586517631007 28.853282013586075 0.0469718055231562 -0.014793462134358112 28.855707957280075 0.020216731855022162 0.003976775390902518 5.713680492623536 1.6207920295644842 14.646686601049046 -71.88696216293951 0.7245861326220191 -9.462768249648962 14.509086296473793 -13.908935024655735 -78.15158512824102 -7.477605653376321 9.21668991065845 -10.527591052831252 -0.4983984340734126 0.07944579709671534 -8.133392033424995 0.024993683927857963 -0.01796230158381602 44.593081842370424 -0.03996056647710234 -0.018047650374756065 44.61352981054063 12.451258474820802 -0.04729874482620101 -0.02331083688223969 0.03952148907515421 0.025164807468203553 -0.030478571338055576 -0.025320282123254663 0.0436484502288934 0.021510689640601086 11.118365637851817 0.028367736493831862 0.048487590750482076 0.006827683312211298 0.02721336238681063 -0.042071186920153276 -0.0019296383484606796 0.005043020429310438 0.013316552890034219 4.787358158459067 -0.040496903849561464 0.031033135015517074 0.018704502979294643 0.024266513914514766 0.015458508201680059 -0.011727497837917236 -0.008299202944273552 -0.007838027704646462 -5.604564137032413 -0.03860734450535532 0.04360029293966573 -6.719593060000696 0.026365580092519634 0.019049061259972 -6.694451143470035 -0.027892697998377226 -0.045942822396699515 0.029307916680337137 0.012791798461941332 0.005111333247876906 8.028781030338369 3.50138642584731 -19.218494149091043 0.017628564761898228 10.415332994956218 0.04352578442239986 -5.632632878631043 -15.705029286316066 3.1969287906025583 0.04411547269437431 0.035438298902026065 -0.0078951173999227 0.049708287474070405 4.678620748794028 -0.01988937768936929 12.42415898857628 -8.221310099364217 6.907977039179096 0.01866639016167969 46.33131090307198 -0.031625701809250485 -4.357863174909036 -14.789736478653081 -3.850322997564556 -0.020355358918891467 -0.021133709796274804 -0.0300912118235814 0.015831833322828164 -10.77055359729568 -0.02144063214592401 
-0.026602414011827998 0.01692860094776161 0.04713559790380184 -0.008880766841674187 0.0186225494522897 -0.015026678389399582 1.8760066692644959 3.6583427730025035 -1.4921111485812297 -0.754552379010528 3.7492258578730575 0.41807742986208046 -0.8202100875945734 -1.1768775746130216 1.9866302009860974 -0.5710999818499941 -0.7867897834983234 -0.29729787135244284 0.5068649277195361 12.246694922831429 -2.224201329513155 0.14977545255244293 -1.429719637423419 -7.304674998922841 1.0732155863533852 -17.80743737967726 -0.6496622629451575 -8.713005799065982 3.0818273430234577 -16.515191999359494 74.99190446724361 -24.96967121706881 25.595048116912604 21.542171406301016 -4.68098644531432 91.26967513746803 7.793948385547863 -0.2820256164760684 -0.3704788664988302 4.562101813856543 -0.16728601270587556 -1.5894755701854157 -0.00011816972420437046 -0.008713859502858332 -56.258426968151944 -0.00534393057621252 -0.010077966125713364 -56.245717785377494 -38.757739994363405 -0.006015260003533122 -0.023858582748130904 -0.016472557619378724 -0.04523156040619875 -0.016537060718446305 -0.010378273773546158 0.029326341419686465 -0.04819580814010525 -36.683355976430306 0.027726865773423044 -0.026222668542755328 -0.027448548332163633 -0.008591813284106983 0.013951704977949852 0.020308186220206217 0.030418053658126845 0.027855271957726455 -19.73919943480342 0.02844199017364797 0.01793368375816794 -0.04157510400117438 0.04440746365509384 -0.04596367045198633 -0.043189474565093186 -0.03395445493777304 -0.010620609028843047 24.013742192362344 0.01049293126943835 0.03432858765202943 28.864944216219197 0.006796430321300793 0.04752263949518744 28.889784502118772 -0.023990810514224314 -0.048327320092757774 6.217077739730567 1.6742843818507878 14.809154984919578 -71.4613435617102 0.15234783536882748 -9.501282242482532 15.439379485262398 -14.98822320689455 -80.96830837608333 -6.312744632719197 8.144988571525921 -10.64062554325858 -0.5215380089392149 0.09042581624504914 -8.095371067755254 -0.03202479755365019 0.02737547424253288 44.53887352588526 -0.019821661747792343 0.009525133511269105 44.59073572981603 12.44427483941067 -0.049807023342662286 -0.04106288300638725 -0.0014109217473048537 0.020381459559651517 -0.015227846776818264 -0.007492515232730943 0.010963284383261477 0.020170308931381456 11.056798261909234 0.02443307710777352 -0.01862127067205463 -0.00506263581397884 -0.024428962344412667 0.028050076973907503 0.017537951241404205 0.04036880291783086 0.017068486257479476 4.749287752358914 -0.017413331422069238 -0.009553700956648722 0.0048330387393743296 -0.015020350701092323 0.023410081463170758 0.012377055015005764 -0.004153250302114415 -0.016941430181024505 -5.613171126333666 -0.019449450209481495 0.010538056013018918 -6.722186037052109 0.013247744158648954 0.018986467145726233 -6.730941334699272 0.0208664981291869 0.014017767542917703 0.038856524910004485 0.04942761915010937 -0.005510364456920254 8.068681388053617 3.4570116226192678 -19.234038927140357 -0.03817303106572601 10.41811155846131 0.006981872691128835 -5.634414629079519 -15.645646844637648 3.222342202143747 -0.02187342494411091 -0.031344492602066634 0.018719819295008013 0.04474945221256566 4.6639683848069104 -0.021011748673507177 12.427482885676357 -8.235449352574783 6.902086770067563 0.04852087260342487 46.3578747462354 0.009382837806045385 -4.351596176469501 -14.703612269094124 -3.809345000659667 0.0030100526133442656 -0.00202646485459471 0.01443021888526969 -0.03030148425689081 -10.726893708361214 0.012413704390424085 
0.006667995297123502 0.039244338264290246 0.030881974573635885 -0.04660081512232467 0.04812537133493039 0.011919332698530613 2.148202172758206 3.68298480658359 -1.5667685129786448 -0.8018353219735166 3.748678678139316 0.4209471586718616 -0.839538358259898 -1.1925374482652795 2.325879221186399 -0.58191124575326 -0.845021366605155 -0.20618584014451166 0.5908665133095807 12.49991009049299 -2.1721212815602327 0.14298476911797933 -1.3813364588320265 -7.236244010539137 1.1200785062347696 -17.76941975648523 -0.6126646867137722 -9.685001200218002 3.3542221654534905 -16.722050694922267 74.65171334796598 -27.70920075193941 28.986477488846763 20.639319450800862 -5.599036164144755 92.3638839019551 6.732563778934054 -0.20608370249784602 0.1215482580900588 4.556967362642806 -0.09011121212212556 -1.5737522911579112 -0.0363669660974124 0.002848084575086333 -56.214562453987284 0.028982194100890982 -0.02154185278023939 -56.21542790863603 -38.7582416375706 -0.045953623697915474 -0.004908474718437471 0.026229296114620104 -0.0075740715254058915 -0.03278602158635762 0.010047709725970166 0.03243494126746814 0.032853867497031765 -36.700098354824014 -0.015865031999533995 -0.024580808092566905 0.030484256749123338 0.018219736765362145 -0.020421704967332404 -0.009733105218652753 0.012346666394418589 0.003981406162391431 -19.776156593077168 0.0006538518346198536 -0.02679525504778583 -0.013683846610710104 -0.004550570434394857 0.012894093321526742 -0.008742958432090145 -0.013851879293709035 0.0441106817406252 24.04420011230072 0.031462971521447024 0.015163802363071717 28.881511237128922 -0.026037294630901455 -0.04236615105399654 28.854769875483633 0.041073459192674334 -0.009068407352471575 6.686372632265146 1.7544850809382035 15.0463680119412 -71.28423474221012 -2.1100187549271587 -9.812172132238786 14.578027557863207 -14.224275997259411 -82.76893014253083 -5.4390309420139 7.900558686689479 -11.072703899060148 -0.49844631785502835 0.07309863783678594 -8.112519307240364 -0.0093269204716336 0.013637352381431685 44.576087323078085 -0.0298537017497117 -0.03185737844934234 44.56971951797539 12.46284920870752 -3.510231322165175e-05 -0.044560542753092396 0.018396875923782016 0.030768892199584 -0.035138702348845294 0.006133322623455904 0.02951437038595274 -0.04354322543611671 11.116218819413326 0.01727212501198882 -0.036726548247526476 0.007848810885357256 -0.028295611095288206 0.002312506359514163 0.03878242365822327 0.04217225238025823 0.029375709769777405 4.740184121891288 0.04593872030601762 0.0015731990823958605 0.025349294013102545 0.007252979155899874 -0.01984694491781539 0.015542641746205661 -0.0013494646150646469 0.018004318045278016 -5.578430134648051 0.009147469181323085 0.009755067897438827 -6.716074967902968 0.021200385581236304 0.00319252701587451 -6.712333273427559 -0.036366330499352534 0.03236211218337802 0.004059577472278409 -0.018496072100403094 -0.04665579729318442 8.014681613512883 3.4860903839595045 -19.243069254338458 -0.036128582360208605 10.414297558318564 -0.02232448827633424 -5.67004420251758 -15.671119784837346 3.1955798134338216 -0.039086712085336865 0.02302168319670778 0.01292515930586469 0.02035751832634366 4.687026888767105 0.0013289860861326818 12.418930844169214 -8.252007577355029 6.90879820354536 0.013589931975501802 46.373191029639244 -0.02506542856579244 -4.344384598493128 -14.705117631635336 -3.8671703163436137 0.00398783012476056 0.03390760985568015 0.043778793882713794 0.04572707401558172 -10.767276669389778 -0.0354501759623236 
